<svg width="40" height="40" viewBox="0 0 40 40" fill="none" xmlns="http://www.w3.org/2000/svg">
<path fill-rule="evenodd" clip-rule="evenodd" d="M16.9396 25.3026L23.3035 18.9387C23.8893 18.3529 24.8391 18.3529 25.4248 18.9387C26.0106 19.5244 26.0106 20.4742 25.4248 21.06L19.0609 27.4239C18.4751 28.0097 17.5254 28.0097 16.9396 27.4239C16.3538 26.8382 16.3538 25.8884 16.9396 25.3026Z" fill="white"/>
<path fill-rule="evenodd" clip-rule="evenodd" d="M16.9396 12.5761C17.5254 11.9903 18.4751 11.9903 19.0609 12.5761L25.4248 18.94C26.0106 19.5258 26.0106 20.4756 25.4248 21.0613C24.8391 21.6471 23.8893 21.6471 23.3035 21.0613L16.9396 14.6974C16.3538 14.1116 16.3538 13.1618 16.9396 12.5761Z" fill="white"/>
</svg>
