<svg width="40" height="40" viewBox="0 0 40 40" fill="none" xmlns="http://www.w3.org/2000/svg">
<path fill-rule="evenodd" clip-rule="evenodd" d="M23.0604 14.6974L16.6965 21.0613C16.1107 21.6471 15.1609 21.6471 14.5752 21.0613C13.9894 20.4756 13.9894 19.5258 14.5752 18.94L20.9391 12.5761C21.5249 11.9903 22.4746 11.9903 23.0604 12.5761C23.6462 13.1618 23.6462 14.1116 23.0604 14.6974Z" fill="white"/>
<path fill-rule="evenodd" clip-rule="evenodd" d="M23.0604 27.4239C22.4746 28.0097 21.5249 28.0097 20.9391 27.4239L14.5752 21.06C13.9894 20.4742 13.9894 19.5244 14.5752 18.9387C15.1609 18.3529 16.1107 18.3529 16.6965 18.9387L23.0604 25.3026C23.6462 25.8884 23.6462 26.8382 23.0604 27.4239Z" fill="white"/>
</svg>
