<svg width="16" height="16" viewBox="0 0 16 16" fill="none" xmlns="http://www.w3.org/2000/svg">
<path d="M7.8 1L2 3.07511V6.86445C2 10.3696 4.47467 13.7376 7.8 14.5333C11.1253 13.7376 13.6 10.3696 13.6 6.86445V3.07511L7.8 1Z" fill="#3B7CF3"/>
<path fill-rule="evenodd" clip-rule="evenodd" d="M11.4242 5.15083C11.6585 5.38515 11.6585 5.76505 11.4242 5.99936L7.42417 9.99936C7.18985 10.2337 6.80995 10.2337 6.57564 9.99936L4.57564 7.99936C4.34132 7.76505 4.34132 7.38515 4.57564 7.15083C4.80995 6.91652 5.18985 6.91652 5.42417 7.15083L6.9999 8.72657L10.5756 5.15083C10.81 4.91652 11.1899 4.91652 11.4242 5.15083Z" fill="white"/>
</svg>
