<svg width="24" height="24" viewBox="0 0 24 24" fill="none" xmlns="http://www.w3.org/2000/svg">
<path fill-rule="evenodd" clip-rule="evenodd" d="M15.1 16.4992L9.70013 11.0993C9.20309 10.6023 8.39722 10.6023 7.90017 11.0993C7.40313 11.5963 7.40313 12.4022 7.90017 12.8993L13.3001 18.2992C13.7971 18.7962 14.603 18.7962 15.1 18.2992C15.5971 17.8021 15.5971 16.9962 15.1 16.4992Z" fill="#949494"/>
<path fill-rule="evenodd" clip-rule="evenodd" d="M15.1 5.70085C14.603 5.2038 13.7971 5.2038 13.3001 5.70085L7.90017 11.1007C7.40312 11.5978 7.40312 12.4037 7.90017 12.9007C8.39722 13.3977 9.20309 13.3977 9.70013 12.9007L15.1 7.50081C15.5971 7.00377 15.5971 6.19789 15.1 5.70085Z" fill="#949494"/>
</svg>
