<svg width="24" height="24" viewBox="0 0 24 24" fill="none" xmlns="http://www.w3.org/2000/svg">
<path fill-rule="evenodd" clip-rule="evenodd" d="M8.89998 16.4992L14.2999 11.0993C14.7969 10.6023 15.6028 10.6023 16.0998 11.0993C16.5969 11.5963 16.5969 12.4022 16.0998 12.8993L10.6999 18.2992C10.2029 18.7962 9.39703 18.7962 8.89998 18.2992C8.40294 17.8021 8.40294 16.9962 8.89998 16.4992Z" fill="#949494"/>
<path fill-rule="evenodd" clip-rule="evenodd" d="M8.89998 5.70085C9.39703 5.2038 10.2029 5.2038 10.6999 5.70085L16.0998 11.1007C16.5969 11.5978 16.5969 12.4037 16.0998 12.9007C15.6028 13.3977 14.7969 13.3977 14.2999 12.9007L8.89998 7.50081C8.40294 7.00377 8.40294 6.19789 8.89998 5.70085Z" fill="#949494"/>
</svg>
