<svg width="71" height="58" viewBox="0 0 71 58" fill="none" xmlns="http://www.w3.org/2000/svg">
<path fill-rule="evenodd" clip-rule="evenodd" d="M66 45.1761V4H4V43.0602L20.4776 24.5394C22.5589 22.2 26.2291 22.2439 28.2538 24.6326L41.0153 39.6879L48.5865 31.8712C50.0495 30.3608 52.4827 30.3956 53.9018 31.9473L66 45.1761ZM4 54V49.5294L4.64328 48.8063L23.6902 27.3976C24.0337 27.0115 24.6394 27.0187 24.9736 27.413L47.5099 54H4ZM66 54H53.1469L52.4326 53.1574L43.8092 42.984L51.1947 35.3589L65.6502 51.1653L66 51.5477V54ZM70 49.5499V3C70 1.34315 68.6569 0 67 0H3C1.34315 0 0 1.34315 0 3V43.1548V55C0 56.6569 1.34315 58 3 58H67C68.6569 58 70 56.6569 70 55V50.1008L70.2743 49.8499L70 49.5499ZM53.0281 18.3419C53.0281 20.6385 51.1725 22.4859 48.9012 22.4859C46.6299 22.4859 44.7742 20.6385 44.7742 18.3419C44.7742 16.0452 46.6299 14.1978 48.9012 14.1978C51.1725 14.1978 53.0281 16.0452 53.0281 18.3419ZM57.0281 18.3419C57.0281 22.8397 53.3895 26.4859 48.9012 26.4859C44.4128 26.4859 40.7742 22.8397 40.7742 18.3419C40.7742 13.844 44.4128 10.1978 48.9012 10.1978C53.3895 10.1978 57.0281 13.844 57.0281 18.3419Z" fill="#C4CFE3"/>
</svg>
